<svg fill="#3BD6FF" xmlns="http://www.w3.org/2000/svg" id="logo" viewBox="0 0 127.413 130.026"><g id="Group_49"><g id="Group_48"><path id="Path_193" d="M.209 1.137l-.044-.026A9.268 9.268 0 01-3-11.732a9.14 9.14 0 015.9-4.7l1.195 3.655A6.533 6.533 0 00.069-9.846a5.4 5.4 0 002.124 7.361l.044.026A5.187 5.187 0 009.628-4.07a6.617 6.617 0 00.586-5.154l3.412-.872a9.377 9.377 0 01-.977 8A8.825 8.825 0 01.209 1.137" transform="translate(4.371 46.822)"/><path id="Path_195" d="M0 .181l2.761-2.794 12.446 12.8-2.761 2.794z" transform="translate(10.942 22.725)"/><path id="Path_196" d="M.3.522L-4.284 3.4-6.165.285 6.306-7.551l1.88 3.116-4.579 2.877L11 10.682l-3.315 2.08z" transform="translate(25.187 14.755)"/><path id="Path_197" d="M.427.866l-9.343-8.745 4.389-1.206 5.916 5.871 2.3-8.129 4.267-1.172L4.162-.241 5.994 6.7 2.24 7.732z" transform="translate(44.123 13.111)"/><path id="Path_198" d="M.032 0l-.077 3.477 9.416.217L-.6 15.008l-.067 3.014 14.717.34.079-3.477L4.4 14.66l9.98-11.314.068-3.012z" transform="translate(57.796)"/><path id="Path_199" d="M.279 0l12.512 4.7L11.6 8.012 2.709 4.673 1.471 8.106l7.819 2.939-1.19 3.311-7.825-2.937-1.282 3.554 9 3.383L6.8 21.668l-12.63-4.745z" transform="translate(81.932 2.449)"/><path id="Path_200" d="M.524 0l2.728 2.375-.766 13.931 7.065-8.445L12.47 10.4 1 24.118l-2.52-2.19.784-14.389-7.294 8.719-2.919-2.541z" transform="translate(103.707 12.65)"/><path id="Path_201" d="M.011.337l3.531.631a8.425 8.425 0 00.771 5.76c.793 1.406 1.819 1.933 2.717 1.407l.044-.026c.853-.5.988-1.294.172-4.293-.988-3.61-1.28-6.143 1.763-7.928l.044-.027c2.779-1.632 5.9-.433 7.7 2.761a10.616 10.616 0 011.33 6.948l-3.547-.3a8.612 8.612 0 00-.782-4.95C13.011-.993 12.03-1.339 11.286-.9l-.044.027c-1.007.59-.958 1.453-.112 4.554.979 3.646.869 6.088-1.8 7.655l-.043.026C6.244 13.144 3.2 11.78 1.3 8.408A11.675 11.675 0 01.011.337" transform="translate(109.207 38.105)"/></g><g id="Group_47" transform="translate(17.483 26.893)"><path id="Path_202" d="M1.975 5.577c-22.786 0-41.261-18.852-41.261-42.11s18.474-42.108 41.261-42.108S43.24-59.788 43.24-36.533 24.766 5.577 1.975 5.577m0-86.206c-23.823 0-43.207 19.782-43.207 44.1s19.384 44.1 43.207 44.1 43.213-19.783 43.213-44.1-19.388-44.1-43.213-44.1" transform="translate(44.077 83.531)"/><path id="Path_203" d="M1.975 5.577c-22.786 0-41.261-18.852-41.261-42.11s18.474-42.108 41.261-42.108S43.24-59.788 43.24-36.533 24.766 5.577 1.975 5.577m0-86.206c-23.823 0-43.207 19.782-43.207 44.1s19.384 44.1 43.207 44.1 43.213-19.783 43.213-44.1-19.388-44.1-43.213-44.1" transform="translate(44.077 83.531)"/><path id="Path_205" d="M.043.063L-.7.249l-.2-.785L.33-.911h.642v4.4H.043z" transform="translate(9.396 45.91)"/><path id="Path_206" d="M.1.085V.073a.549.549 0 00-.607-.512.541.541 0 00-.61.506V.08a.548.548 0 00.61.536A.547.547 0 00.1.085m.131 1.842v-.013c0-.338-.312-.536-.739-.536s-.742.2-.742.536v.013c0 .3.277.543.742.543s.739-.238.739-.543M-2.16 2v-.012A1.061 1.061 0 01-1.467.935a1.041 1.041 0 01-.544-.955v-.013c0-.668.6-1.2 1.5-1.2S1-.706 1-.033v.013a1.044 1.044 0 01-.55.955 1.08 1.08 0 01.692 1.029v.014c0 .809-.7 1.285-1.649 1.285S-2.16 2.762-2.16 2" transform="translate(13.61 46.198)"/><path id="Path_207" d="M.11.1V.084a.671.671 0 00-.751-.667.649.649 0 00-.729.662v.014a.66.66 0 00.746.653A.652.652 0 00.11.1M.089 1.247a1.285 1.285 0 01-.867.3A1.365 1.365 0 01-2.305.134V.123A1.522 1.522 0 01-.672-1.406a1.532 1.532 0 011.234.474A2.2 2.2 0 011.069.715v.012C1.069 2.145.415 3.11-.8 3.11a2.048 2.048 0 01-1.405-.517l.5-.729a1.368 1.368 0 00.936.373c.649 0 .83-.617.867-.99" transform="translate(79.259 46.36)"/><path id="Path_209" d="M.1.173v-1.359L-1.036.173zm0 .782h-2.088l-.152-.68L.207-2.5H1V.173h.576v.782H1V1.9H.1z" transform="translate(83.233 47.501)"/><path id="Path_210" d="M0 .417L.792-1.11l3.548-.261L2.541-4.5l.788-1.531 6.325 3.4-.725 1.403L4.8-3.444 6.563-.179l-.019.036-3.6.365 4.1 2.2-.719 1.394z" transform="translate(10.956 31.511)"/><path id="Path_211" d="M.192.181l-2.338-.918 1.035 2.328zM-4-1.535l.993-1.076L4.329.151 3.2 1.371 1.586.737-.485 2.98l.719 1.608-1.1 1.189z" transform="translate(22.192 21.999)"/><path id="Path_212" d="M0 .217l1.241-.764L6.384 1.52 4.1-2.32l1.329-.821 3.708 6.234L7.99 3.8 2.677 1.668l2.355 3.966-1.326.82z" transform="translate(23.857 14.936)"/><path id="Path_213" d="M.007.317L0 .3a3.72 3.72 0 012.557-4.683A3.619 3.619 0 015.57-4.1l-.643 1.415a2.6 2.6 0 00-1.978-.274 2.172 2.172 0 00-1.375 2.77l.006.019A2.122 2.122 0 004.2 1.447 2.594 2.594 0 005.768.093L7.01.8a3.681 3.681 0 01-2.46 2.085A3.6 3.6 0 01.007.317" transform="translate(33.441 13.573)"/><path id="Path_215" d="M0 .01l1.573-.043.071 2.887 2.9-.075-.072-2.885 1.57-.04.182 7.291-1.572.041-.074-2.926-2.9.073.076 2.927-1.572.04z" transform="translate(42.02 8.027)"/><path id="Path_216" d="M0 .315l1.314-.631A3.316 3.316 0 002.885 1.4c.587.276 1.046.2 1.221-.182l.007-.018c.169-.37.031-.663-.926-1.458C2.035-1.216 1.361-1.984 1.955-3.3l.006-.02a2.215 2.215 0 013.176-.924 4.176 4.176 0 012.03 1.978l-1.24.748a3.4 3.4 0 00-1.391-1.449c-.544-.258-.949-.137-1.1.185l-.008.019c-.195.436.017.708 1.007 1.531C5.6-.261 6.119.572 5.6 1.726l-.008.019c-.594 1.314-1.914 1.589-3.311.931A4.635 4.635 0 010 .315" transform="translate(57.315 15.851)"/><path id="Path_218" d="M.158.163l-1.729-1.345.879-1.177 4.708 3.664-.879 1.176-1.729-1.344-3.454 4.624-1.254-.973z" transform="translate(67.582 16.423)"/><path id="Path_219" d="M.215.29c.344.7.907.911 1.445.633l.02-.009c.6-.309.7-.9.355-1.593l-.7-1.427-1.835.942zM1.9-4.189L3.364-1.21a2.967 2.967 0 01.288 2.233 2.278 2.278 0 01-1.185 1.308l-.017.009a2.186 2.186 0 01-2.669-.381l-1.5 2.763-.825-1.675L-1.186.6l-.557-1.127L-3.785.521l-.706-1.434z" transform="translate(77.146 31.132)"/><path id="Path_221" d="M.1.3l2.633.58.728-1.3L.4-1.1l.3-1.446 3.741.829.3-1.394L-.531-4.28l-1.513 7.131 5.32 1.177.3-1.4L-.218 1.8z" transform="translate(52.446 12.628)"/><path id="Path_222" d="M.25 0l-5.48 4.685 3.5 4.258 1.07-.916-2.492-3.037L-2 4.006l1.751 2.133 1.422-.491L-.928 3.09l1.11-.952 2.46 3 1.071-.917z" transform="translate(73.502 19.893)"/><path id="Path_223" d="M0 .25V.229A3.734 3.734 0 013.792-3.61a3.71 3.71 0 012.869 1.145l-1.019 1.2a2.659 2.659 0 00-1.86-.835A2.181 2.181 0 001.671.208v.021a2.188 2.188 0 002.11 2.333 2.6 2.6 0 001.919-.87l1.013 1.051a3.684 3.684 0 01-2.981 1.326A3.709 3.709 0 010 .25" transform="translate(34.064 81.82)"/><path id="Path_225" d="M70.742-62.973h1.6v7.425h-1.6z" transform="translate(-28.409 141.31)"/><path id="Path_226" d="M.1.1h-2.212v-1.508h6.027V.1H1.7v5.92H.1z" transform="translate(47.553 79.745)"/><path id="Path_227" d="M.128.291l-2.794-4.5H-.8L.94-1.225 2.7-4.207h1.82L1.729.26v2.958H.128z" transform="translate(54.821 82.544)"/><path id="Path_228" d="M2.1 5.957c-24.353 0-44.165-20.224-44.165-45.079S-22.248-84.2 2.1-84.2s44.175 20.224 44.175 45.077S26.462 5.957 2.1 5.957m0-92.077c-25.392 0-46.053 21.082-46.053 47s20.66 47 46.053 47 46.059-21.087 46.059-47-20.659-47-46.059-47" transform="translate(43.948 86.12)"/><path id="Path_229" d="M.921 1.26H8.86A27.136 27.136 0 004.875.428a6.406 6.406 0 01-2.533.5C.413.966-.422.413-2.628.274c-.193-.011.118.583-2.026.689A9.511 9.511 0 01-7.31.55c-.867-.21-1.581-.031-1.8.71H.864zM-5.7-2.926l.015 1.473c1.6.13 3.672.213 6.547.211L.88-2.771c-1.187.306-1.524.794-1.636 1.015v-.012A4.354 4.354 0 01-1.645-2.8 18.39 18.39 0 00-5.7-2.926m7.118.044v1.638h.379c.609 0 1.2-.027 1.78-.045.281-.01 1.261-.447 1.534-.462.7-.037 1.371-.087 2.006-.144v-.519A16.035 16.035 0 001.41-2.88m19.457 4.14l-.088 1.685h-39.944l-.073-1.685h9.948a17.837 17.837 0 00-1.963-2.693c-1.5-.748-3.613-1.583-3.613-1.583l.1-.285a17.744 17.744 0 003.823 1.064 43.545 43.545 0 004.725.737l.018-1.358c-.141.025-.282.05-.417.083a5.4 5.4 0 00-.808.241 1.422 1.422 0 00-.464.309.56.56 0 00-.061.1.013.013 0 010-.006l-.005.009a3.356 3.356 0 01-1.129-1.934A2.58 2.58 0 01-8.7-6.094l5.776-2.026a6.441 6.441 0 00-.133 1.7 4.678 4.678 0 00.118.754A7.441 7.441 0 00-2.5-4.419a9.1 9.1 0 00.452.822 4.522 4.522 0 01-.252-.888A3.063 3.063 0 01-1.616-6.9l7-2.468c-.047 0-.211.006-.457.02a24.783 24.783 0 00-4.205.684 4.566 4.566 0 00-1.6.82 3.132 3.132 0 00-.6.623l-.005.005a4.163 4.163 0 01-.869-2.182 1.966 1.966 0 01.724-1.975l5.816-2.063a21.232 21.232 0 00-4.284.714 3.154 3.154 0 00-.365.141.07.07 0 01-.018.009l-.1.055a2.286 2.286 0 00-.933.884s-.643-.176-.7-1.531a3.083 3.083 0 01.735-2l2.5-.887.018-1.381-.7.077a.19.19 0 00-.07.019.2.2 0 00-.107.137v.012a.175.175 0 01-.164.156h-.009c-.086.009-.853.066-1.383.093-.059 0-.091-.082-.007-.111.464-.159 1.113-.395 1.206-.423s.132-.066.138-.135a.256.256 0 01.2-.173c.114-.03 1.246-.436 1.246-.436l.005 2.041 2.185-.774a3.654 3.654 0 00-.249 1.5 3.5 3.5 0 00.881 2.01h.008a.271.271 0 00-.016.049 6.226 6.226 0 00-.058.921c.006.132.016.278.03.442.013.092.027.184.047.272a5.96 5.96 0 00.687 1.655c.151.247.289.453.384.584.066.091.106.141.106.141h-.006l.005.007h.01s-.013.055-.03.149l.029-.118-.044.184a8.138 8.138 0 00-.1 2.175 5.544 5.544 0 00.129.7A12.083 12.083 0 007.132-2.77L7.236-14c-.261.03-.674.077-.735.081a.2.2 0 00-.18.159c-.006.015 0 0 0 0a.18.18 0 01-.108.14.363.363 0 01-.038.01l-.024.009h-.008a.162.162 0 00-.024 0 55.08 55.08 0 01-1.355.091c-.061 0-.09-.082-.007-.113.461-.157 1.112-.392 1.2-.421a.418.418 0 00.052-.02l.007-.005c.009 0 .016-.01.024-.014a.124.124 0 00.051-.093.161.161 0 01.049-.088.428.428 0 01.05-.043.367.367 0 01.073-.035h.02c.122-.034 1.251-.439 1.251-.439l.042 4.719 4.592-1.618s-.04.205-.092.536c0-.014.005-.028.007-.042a13.986 13.986 0 00-.138 3.383 7.979 7.979 0 001.131 3.162c.053.084.089.132.089.132h-.005a.123.123 0 00.015.019L7.654-2.55l.005.6c2.876-.287 4.849-.7 4.849-.7s.018.911-1.294 2.166a1.232 1.232 0 00.126 1.732.024.024 0 01.006.007zM-8.57-12.36c.495-.027 1.2-.079 1.357-.094h.025a.178.178 0 00.173-.146v-.012a.2.2 0 01.182-.158c.059 0 .454-.05.716-.078l-.016 1.827-2.257.79a3.109 3.109 0 00-.772 2.021c-.073 1.351.6 1.761.6 1.761v-.005l.006.017a2.435 2.435 0 011.173-.874c.052-.02.109-.043.168-.063a16.428 16.428 0 014.286-.746 6.535 6.535 0 01-.471-.635 5 5 0 01-.626-1.5v-.021a3.443 3.443 0 01-.012-.942 3.642 3.642 0 01.125-.55.305.305 0 00.013-.036v-.006l-.005.009-1.868.654-.021-2.492-.014.007c-.129.047-1.125.4-1.231.432l-.02.007a.24.24 0 00-.181.169.141.141 0 01-.106.12l-.029.012c-.094.031-.742.263-1.208.426-.082.03-.05.115.012.111m-4.174 8.768c.872.092 1.66.233 2.057.31l.285.062a11.56 11.56 0 01-.024-3.131 11.158 11.158 0 01.971-3.033 6.262 6.262 0 01.328-.569l-.013.007v-.007.009A10.747 10.747 0 00-11.779-7.8a13.192 13.192 0 00-2.835 4.2 9.276 9.276 0 011.869.012m24.929-8.095a4.493 4.493 0 01-.09.494c.05-.309.09-.494.09-.494" transform="translate(45.53 45.858)"/><path id="Path_230" d="M1.814 3.472a27.759 27.759 0 0011.22-18.281 82.828 82.828 0 00.069-21 27.544 27.544 0 014.123 14.547A27.4 27.4 0 011.814 3.472M-36.3-21.264a27.54 27.54 0 014.373-14.946 82.144 82.144 0 00.044 21.343A28.81 28.81 0 00-20.425 3.687 27.374 27.374 0 01-36.3-21.264m26.761-27.308a26.248 26.248 0 0115.073 4.75A133.23 133.23 0 00-9.4-44.667h-.266a130.044 130.044 0 00-14.966.861 26.242 26.242 0 0115.093-4.766m.09 55.225C-24.873 1.524-29.377-8.814-30.161-14.732a82.8 82.8 0 01.738-24.5 9.39 9.39 0 01.432-1.8 104.178 104.178 0 0119.545-1.653A102.2 102.2 0 0110.1-41a7.485 7.485 0 01.436 1.749 82.773 82.773 0 01.741 24.518C10.487-8.814 5.976 1.524-9.449 6.652m28.261-27.916a29.167 29.167 0 00-6.2-18.038c-.376-2.273-.7-3.587-.7-3.587s-1.164-.234-3.242-.53a27.878 27.878 0 00-18.209-6.773 27.879 27.879 0 00-18.236 6.8c-1.93.284-3 .5-3 .5s-.3 1.188-.648 3.258a29.163 29.163 0 00-6.462 18.367 28.809 28.809 0 0023.622 28.53 38.58 38.58 0 004.814 1.775 42.393 42.393 0 004.761-1.8 28.815 28.815 0 0023.5-28.506" transform="translate(55.843 68.261)"/><path id="Path_231" d="M.687 1.256A.7.7 0 01.1 1.17l-.01-.008a.131.131 0 01-.017-.013l-.049-.04A.71.71 0 01-.218.577l-.01-1.3s0-.031.005-.047l-14.113-17.391c.092 1.362.223 2.751.411 4.153.733 5.519 4.919 15.123 19.178 19.983l-3.975-4.9z" transform="translate(40.739 67.562)"/><path id="Path_232" d="M.2 0C.187.047.171.1.15.167A1.934 1.934 0 01-.627 1.2a.711.711 0 01.04.248L-.62 2.767a.719.719 0 01-.244.521V3.3l-.052.036a.688.688 0 01-.406.13.724.724 0 01-.213-.033l-1.231-.393A.748.748 0 01-3 2.905a1.956 1.956 0 01-1.128.448l2.464 3.031a32.591 32.591 0 004.82-2.807L.209-.052C.2-.033.2-.016.2 0" transform="translate(52.667 65.399)"/><path id="Path_233" d="M.3.52a1.633 1.633 0 01.76-1.231 1.932 1.932 0 01.658-.308c.061-.022.136-.045.216-.069h.01a3.065 3.065 0 001.019-.483 3.526 3.526 0 00.851-.9l.021-.029a5.071 5.071 0 01.313-.409 1.446 1.446 0 01.236-.227l.016-.015L.872-7.517h-7.1S.252.458.3.52" transform="translate(39.062 56.923)"/><path id="Path_234" d="M0 0l5.036 6.2c.148.062.291.109.437.157l.023.009c.137.045.309.1.483.172a1.407 1.407 0 01.284.157 1.146 1.146 0 01.148.1 1.967 1.967 0 01.722 1.052.712.712 0 01.275.035l1.239.442a.709.709 0 01.419.415l.02.014V8.8a.713.713 0 01-.1.61l-.621.882 5.041 6.208a24.229 24.229 0 003.506-4.446L7.107 0z" transform="translate(46.058 49.418)"/><path id="Path_235" d="M0 0l5.6 6.891a18.751 18.751 0 00.592-2.754c.189-1.428.307-2.749.4-4.137z" transform="translate(59.676 49.418)"/><path id="Path_236" d="M.036.141A1.973 1.973 0 01.807-.99L.036-2.038-.761-.99A1.941 1.941 0 01.036.141" transform="translate(46.244 54.327)"/><path id="Path_237" d="M.094.07a1.964 1.964 0 01-.826-1.088L-1.956-.6l.741 1.086A1.881 1.881 0 01.094.07" transform="translate(40.006 59.008)"/><path id="Path_238" d="M.058 0A1.972 1.972 0 01-1.22.458l.013 1.3 1.256-.369A1.952 1.952 0 01.058 0" transform="translate(42.433 66.373)"/><path id="Path_239" d="M0 0a2.038 2.038 0 01.037 1.371l1.228.395L1.3.443A1.889 1.889 0 010 0" transform="translate(50.08 66.383)"/><path id="Path_240" d="M0 .072a1.96 1.96 0 011.3.389L2.05-.6.814-1.043A1.907 1.907 0 010 .072" transform="translate(52.417 59.01)"/><path id="Path_241" d="M0 .044a.679.679 0 01.672-.681.679.679 0 01.676.681.678.678 0 01-.676.683A.677.677 0 010 .044" transform="translate(45.63 61.07)"/><path id="Path_242" d="M.084.074A1.049 1.049 0 01-.955-.977c0-.083-.073-.113-.121-.057A2.384 2.384 0 00-1.751.343 1.313 1.313 0 00-.439 1.67.818.818 0 00-.3 1.66a.871.871 0 00.216-.027 5.834 5.834 0 011.833-.386 4.047 4.047 0 011.5.321 1.293 1.293 0 00.5.1A1.307 1.307 0 005.052.343a2.327 2.327 0 00-.68-1.377c-.032-.045-.089-.013-.089.057A1.051 1.051 0 013.239.074C2.8.074 2.247-.3 1.7-.3 1.194-.3.52.074.084.074" transform="translate(44.636 66.402)"/><path id="Path_243" d="M0 .164a.841.841 0 00.832.845A.481.481 0 001 .992l.063-.018.037-.01A2.9 2.9 0 012.147.735a3.025 3.025 0 011.034.219.864.864 0 00.291.055.84.84 0 00.834-.845.837.837 0 00-.072-.34.874.874 0 00-.065-.124s-1.4-1.938-1.447-2c-.069-.092-.159-.055-.225-.035a1.484 1.484 0 01-.349.063.984.984 0 01-.348-.061c-.09-.037-.165-.064-.225.035C1.526-2.218.519-.833.2-.384a.85.85 0 00-.2.548" transform="translate(44.133 64.707)"/><path id="Path_244" d="M.065.307a1.038 1.038 0 01-1.312.679c-.076-.028-.126.031-.085.1a2.31 2.31 0 001.084 1.07 1.3 1.3 0 001.648-.85c.012-.043.025-.089.034-.133A.836.836 0 001.48.955a6.019 6.019 0 01.2-1.882 4.035 4.035 0 01.765-1.34 1.436 1.436 0 00.255-.448 1.324 1.324 0 00-.843-1.671 2.307 2.307 0 00-1.507.223c-.054.026-.041.087.019.109a1.052 1.052 0 01.673 1.326C.9-2.308.38-1.89.212-1.363.055-.876.2-.111.065.307" transform="translate(50.783 63.981)"/><path id="Path_245" d="M.085.271a.829.829 0 001.049-.54.422.422 0 00.037-.164.292.292 0 00.005-.067v-.035a3.032 3.032 0 01.106-1.083 3.253 3.253 0 01.526-.93.771.771 0 00.14-.261.849.849 0 00-.53-1.065.9.9 0 00-.347-.033.82.82 0 00-.134.024s-2.26.747-2.326.775c-.111.038-.1.139-.1.2a1.665 1.665 0 01-.046.36 1.074 1.074 0 01-.17.314c-.066.074-.113.139-.041.223S-.694-.535-.369-.091a.845.845 0 00.454.362" transform="translate(49.077 64.078)"/><path id="Path_246" d="M.189.241a1.058 1.058 0 01.229 1.471c-.044.067 0 .135.067.112a2.288 2.288 0 001.345-.711 1.326 1.326 0 00-.288-1.852C1.5-.765 1.466-.79 1.426-.814a1.026 1.026 0 00-.195-.106A5.83 5.83 0 01-.473-1.7 4.07 4.07 0 01-1.5-2.848a1.29 1.29 0 00-.342-.374 1.294 1.294 0 00-1.832.29 2.365 2.365 0 00-.255 1.519c.006.059.07.065.108.012a1.036 1.036 0 011.458-.233c.353.261.583.894 1.023 1.22.411.3 1.176.4 1.528.655" transform="translate(50.47 57.476)"/><path id="Path_247" d="M.166.188A.848.848 0 00-.017-.986a.458.458 0 00-.143-.087L-.223-1.1a.174.174 0 00-.031-.011 2.977 2.977 0 01-.984-.438 3.03 3.03 0 01-.709-.8.87.87 0 00-.206-.216.823.823 0 00-1.161.186.818.818 0 00-.144.32.708.708 0 00-.017.137s.004 2.415.008 2.486c.005.115.1.136.161.16a1.559 1.559 0 01.32.157.927.927 0 01.243.257c.052.086.1.15.2.106S-.833.691-.318.515A.856.856 0 00.166.188" transform="translate(50.066 59.145)"/><path id="Path_248" d="M.2.12a1.035 1.035 0 011.459.232c.046.066.118.047.124-.026a2.372 2.372 0 00-.254-1.514A1.288 1.288 0 00-.3-1.483c-.037.03-.074.059-.108.088a.973.973 0 00-.16.152A5.943 5.943 0 01-1.824.158a4.056 4.056 0 01-1.4.631A1.344 1.344 0 00-3.686 1a1.329 1.329 0 00-.286 1.852 2.306 2.306 0 001.348.712c.054.015.084-.044.045-.1A1.063 1.063 0 01-2.35 2c.35-.263 1.02-.289 1.462-.615C-.478 1.085-.15.379.2.12" transform="translate(44.227 55.739)"/><path id="Path_249" d="M.166.022a.828.828 0 00-1.16-.187.535.535 0 00-.129.111l-.041.052-.021.027A2.935 2.935 0 01-1.9.84a3.182 3.182 0 01-.963.437.836.836 0 00-.269.129.851.851 0 00-.183 1.177.84.84 0 00.256.234.85.85 0 00.125.058l2.334.76c.11.031.159-.055.2-.107a1.606 1.606 0 01.245-.263 1.062 1.062 0 01.32-.152c.094-.022.17-.046.16-.158s0-1.817 0-2.367A.842.842 0 00.166.022" transform="translate(45.66 56.777)"/><path id="Path_250" d="M.079.112a1.056 1.056 0 01.667-1.328c.076-.022.083-.1.015-.129a2.31 2.31 0 00-1.5-.223A1.314 1.314 0 00-1.581.1a1 1 0 00.044.126 1.109 1.109 0 00.1.2 6 6 0 01.922 1.648 4.111 4.111 0 01.163 1.539 1.329 1.329 0 00.058.509 1.309 1.309 0 001.656.855A2.339 2.339 0 002.443 3.9c.038-.05-.014-.092-.074-.072a1.043 1.043 0 01-1.316-.679C.92 2.727 1.1 2.079.935 1.551.779 1.063.214.532.079.112" transform="translate(40.684 61.184)"/><path id="Path_251" d="M.026 0a.85.85 0 00-.533 1.067.51.51 0 00.062.155.64.64 0 01.045.059.124.124 0 00.015.026 3 3 0 01.544.942 3.191 3.191 0 01.109 1.065.8.8 0 00.039.3.835.835 0 001.052.541.867.867 0 00.3-.175.52.52 0 00.1-.1s1.387-1.955 1.426-2.017c.065-.1 0-.171-.035-.227a1.315 1.315 0 01-.172-.318.962.962 0 01-.046-.353c.007-.1.007-.174-.1-.205S1.125.194.6.032A.844.844 0 00.026 0" transform="translate(42.06 60.24)"/><path id="Path_252" d="M0 .137V.125A2.049 2.049 0 012.081-1.98a2.036 2.036 0 011.573.628L3.1-.695a1.463 1.463 0 00-1.021-.46A1.2 1.2 0 00.918.113v.012A1.2 1.2 0 002.075 1.4 1.428 1.428 0 003.124.928l.559.575a2.021 2.021 0 01-1.636.727A2.034 2.034 0 010 .137" transform="translate(43.261 43.449)"/></g></g></svg>