<svg width="62" height="18" fill="none" xmlns="http://www.w3.org/2000/svg"><g id="Group 8273"><g id="TREBLE"><path d="M19.996.255v2.354h-1.958v15.136h-3.08V2.609H13V.255h6.996z" fill="url(#paint0_linear_1_20593)"/><path d="M28.774 11.783l.528 5.962H26.09l-.396-6.116c-.044-.748-.506-1.034-1.144-1.034h-.418v7.15h-3.08V.255h3.916c2.53 0 4.026 1.562 4.026 4.202v1.078c0 2.024-1.012 3.322-2.662 3.608v.22c1.342.22 2.31.704 2.442 2.42zm-4.642-9.174V8.24h.836c.616 0 .946-.44.946-1.342V3.973c0-.902-.33-1.364-.946-1.364h-.836z" fill="url(#paint1_linear_1_20593)"/><path d="M33.483 9.979v5.412h3.498v2.354h-6.578V.255h6.468v2.354h-3.388v5.038h2.486v2.332h-2.486z" fill="url(#paint2_linear_1_20593)"/><path d="M43.667 8.659v.22c1.628.308 2.464 1.628 2.464 3.564v1.254c0 2.53-1.518 4.048-4.092 4.048h-3.982V.255h3.96c2.53 0 3.982 1.474 3.982 4.004v1.166c0 1.672-.77 2.794-2.332 3.234zm-1.672-6.072h-.858v5.082h.858c.616 0 .924-.418.924-1.298V3.84c0-.836-.308-1.254-.924-1.254zM43.05 14.07v-2.64c0-.968-.33-1.43-1.056-1.43h-.858v5.412h.858c.726 0 1.056-.44 1.056-1.342z" fill="url(#paint3_linear_1_20593)"/><path d="M50.444.255V15.39h3.19v2.354h-6.27V.255h3.08z" fill="url(#paint4_linear_1_20593)"/><path d="M57.84 9.979v5.412h3.498v2.354H54.76V.255h6.468v2.354H57.84v5.038h2.486v2.332H57.84z" fill="url(#paint5_linear_1_20593)"/></g><path id="Union" fill-rule="evenodd" clip-rule="evenodd" d="M9.638 17.595v-3.167h-.84v2.265c-1.12-.076-1.763-.549-2.453-1.055l-.091-.067c-.753-.552-1.572-1.109-3.064-1.109H2.066c-.577 0-1.063.13-1.41.396-.354.27-.542.667-.542 1.148 0 .505.185.923.537 1.21.348.284.836.424 1.415.424h1.858L4 16.71H1.964c-.344 0-.59-.077-.744-.196-.148-.113-.232-.279-.232-.508 0-.193.077-.335.224-.436.156-.107.405-.177.752-.177h1.294c1.176 0 1.866.49 2.623 1.027l.054.038c.783.556 1.636 1.137 3.112 1.137h.59zM.317 16.196c.087.792.727 1.252 1.75 1.252h1.68l.045-.545-.046.543h-1.68c-1.021 0-1.662-.459-1.75-1.25zm.484-.078a1.04 1.04 0 01-.007-.114c0-.51.432-.806 1.17-.806h1.294c1.238 0 1.972.522 2.727 1.058.795.565 1.612 1.145 3.062 1.145h.398v-2.78 2.781h-.398c-1.45 0-2.267-.58-3.062-1.145-.754-.535-1.49-1.057-2.727-1.057H1.964c-.738 0-1.17.295-1.17.806 0 .038.003.076.007.112zm8.837-2.15V10.8h-.84v2.266c-1.12-.077-1.763-.55-2.453-1.056l-.091-.067c-.753-.552-1.572-1.109-3.064-1.109H2.066c-.577 0-1.063.13-1.41.396-.354.27-.542.667-.542 1.148 0 .505.185.923.537 1.211.348.284.836.424 1.415.424h1.858L4 13.082H1.964c-.344 0-.59-.077-.744-.196-.148-.113-.232-.278-.232-.508 0-.193.077-.334.224-.435.156-.108.405-.178.752-.178h1.294c1.176 0 1.866.49 2.623 1.027l.054.039c.783.555 1.636 1.136 3.112 1.136h.59zm-9.321-1.4c.087.792.727 1.252 1.75 1.252h1.68l.045-.545-.046.543h-1.68c-1.021 0-1.662-.459-1.75-1.25zM.8 12.49a1.041 1.041 0 01-.007-.113c0-.511.432-.806 1.17-.806h1.294c1.238 0 1.972.521 2.727 1.057.795.565 1.612 1.145 3.062 1.145h.398v-2.78 2.781h-.398c-1.45 0-2.267-.58-3.062-1.144-.754-.536-1.49-1.058-2.727-1.058H1.964c-.738 0-1.17.295-1.17.806 0 .039.003.076.007.112zM11 10.617v-.87L0 7.522v.87l11 2.224zM9.638 7.255V4.088h-.84v2.265c-1.12-.076-1.763-.549-2.453-1.055l-.091-.067c-.753-.552-1.572-1.109-3.064-1.109H2.066c-.577 0-1.063.13-1.41.396-.354.27-.542.667-.542 1.148 0 .505.185.923.537 1.21.348.284.836.425 1.415.425h1.858L4 6.37H1.964c-.344 0-.59-.077-.744-.196-.148-.113-.232-.279-.232-.508 0-.193.077-.335.224-.436.156-.107.405-.177.752-.177h1.294c1.176 0 1.866.49 2.623 1.027l.054.038c.783.556 1.636 1.137 3.112 1.137h.59zM.317 5.856c.087.792.727 1.252 1.75 1.252h1.68l.045-.545-.046.543h-1.68c-1.021 0-1.662-.459-1.75-1.25zM.8 5.778a1.04 1.04 0 01-.007-.114c0-.51.432-.806 1.17-.806h1.294c1.238 0 1.972.522 2.727 1.058.795.565 1.612 1.145 3.062 1.145h.398V4.28v2.781h-.398c-1.45 0-2.267-.58-3.062-1.145-.754-.535-1.49-1.057-2.727-1.057H1.964c-.738 0-1.17.295-1.17.806 0 .038.003.076.007.112zm0-3.72a.92.92 0 01-.005-.1c0-.544.454-.873 1.237-.873h1.34c.729 0 1.173.295 1.23.812-.056-.518-.5-.814-1.23-.814h-1.34c-.783 0-1.238.33-1.238.874A.92.92 0 00.8 2.06zm3.809.342h.454v-.386c0-.647.477-1.021 1.294-1.021H7.8c.741 0 1.206.316 1.265.847C9.007 1.308 8.542.991 7.8.991H6.357c-.817 0-1.294.375-1.294 1.022V2.4h-.454zM6.3 3.467v.001h1.385c1.18 0 1.873-.556 1.873-1.51 0 .953-.692 1.509-1.873 1.509H6.3zm-2.793-.634l-.045.543H2.145C1.068 3.376.403 2.924.316 2.14c.087.786.751 1.239 1.83 1.239h1.316l.046-.545zM3.258.347c.695 0 1.264.263 1.547.757.28-.553.892-.848 1.654-.848h1.226c.618 0 1.135.145 1.5.44.372.3.566.735.566 1.263 0 .527-.194.963-.565 1.262-.366.295-.883.44-1.5.44H6.122l-.078-.93H7.8c.37 0 .642-.086.817-.218a.659.659 0 00.261-.554.659.659 0 00-.261-.555c-.175-.132-.446-.217-.817-.217H6.357c-.382 0-.658.088-.834.226-.17.134-.267.33-.267.602v.58h-.84v-.58c0-.24-.09-.413-.248-.532-.166-.125-.43-.205-.796-.205h-1.34c-.368 0-.633.077-.8.197a.56.56 0 00-.244.484c0 .211.084.37.243.484.168.119.433.197.801.197h1.685l-.077.93H2.146c-.605 0-1.112-.135-1.472-.413-.367-.282-.56-.696-.56-1.198 0-.503.193-.917.56-1.199.36-.277.867-.413 1.472-.413h1.112zm7.549 10.034v-.477.475L.193 8.234v.001l10.614 2.146z" fill="url(#paint6_linear_1_20593)"/></g><defs><linearGradient id="paint0_linear_1_20593" x1="61.338" y1="9.194" x2="13" y2="9.176" gradientUnits="userSpaceOnUse"><stop offset=".214" stop-color="#D8AF69"/><stop offset=".49" stop-color="#F3D88E"/><stop offset=".828" stop-color="#D8AF69"/></linearGradient><linearGradient id="paint1_linear_1_20593" x1="61.338" y1="9.194" x2="13" y2="9.176" gradientUnits="userSpaceOnUse"><stop offset=".214" stop-color="#D8AF69"/><stop offset=".49" stop-color="#F3D88E"/><stop offset=".828" stop-color="#D8AF69"/></linearGradient><linearGradient id="paint2_linear_1_20593" x1="61.338" y1="9.194" x2="13" y2="9.176" gradientUnits="userSpaceOnUse"><stop offset=".214" stop-color="#D8AF69"/><stop offset=".49" stop-color="#F3D88E"/><stop offset=".828" stop-color="#D8AF69"/></linearGradient><linearGradient id="paint3_linear_1_20593" x1="61.338" y1="9.194" x2="13" y2="9.176" gradientUnits="userSpaceOnUse"><stop offset=".214" stop-color="#D8AF69"/><stop offset=".49" stop-color="#F3D88E"/><stop offset=".828" stop-color="#D8AF69"/></linearGradient><linearGradient id="paint4_linear_1_20593" x1="61.338" y1="9.194" x2="13" y2="9.176" gradientUnits="userSpaceOnUse"><stop offset=".214" stop-color="#D8AF69"/><stop offset=".49" stop-color="#F3D88E"/><stop offset=".828" stop-color="#D8AF69"/></linearGradient><linearGradient id="paint5_linear_1_20593" x1="61.338" y1="9.194" x2="13" y2="9.176" gradientUnits="userSpaceOnUse"><stop offset=".214" stop-color="#D8AF69"/><stop offset=".49" stop-color="#F3D88E"/><stop offset=".828" stop-color="#D8AF69"/></linearGradient><linearGradient id="paint6_linear_1_20593" x1="11" y1="9.141" x2="0" y2="9.14" gradientUnits="userSpaceOnUse"><stop offset=".214" stop-color="#D8AF69"/><stop offset=".49" stop-color="#F3D88E"/><stop offset=".828" stop-color="#D8AF69"/></linearGradient></defs></svg>