<svg width="56" height="32" fill="none" xmlns="http://www.w3.org/2000/svg"><g id="Group 8297"><path id="Union" fill-rule="evenodd" clip-rule="evenodd" d="M18.11 5.56c0-3.4 2.046-5.56 4.147-5.56 1.038 0 2.428.689 2.428 2.273 0 1.327-1.197 1.955-1.496 2.112a1.156 1.156 0 00-.058.031c-.501.311-.855.685-.955 1.127-.072.32.009.655.224.92a.598.598 0 01.145.37c0 .428-.278.69-.278.69l-.497-.637a1.826 1.826 0 01-.333-1.51c.117-.517.437-.948.88-1.305l.001-.002c.129-.106.294-.212.469-.324.523-.336 1.136-.729 1.136-1.354 0-.79-.557-1.417-1.646-1.417C20.171.974 19 3.574 19 5.561c0 6.534 2.217 11.727 3.53 14.803.284.666.526 1.234.694 1.693.02.042-.068.108-.12.019-2.13-4.072-4.994-10.23-4.994-16.515zm10.303 5.206a1.05 1.05 0 00-1.053 1.048 1.05 1.05 0 001.053 1.048 1.05 1.05 0 001.053-1.048 1.05 1.05 0 00-1.053-1.048zm7.353.234c-.002.114-.004.244-.004.394 0 4.454-3.393 12.11-4.422 14.432-.134.302-.228.514-.27.616-.502 1.255-.674 2.145-.16 2.759a2.25 2.25 0 001.035.716l.804.266c.341.114.628.349.806.66 0 0 .43.733.325.773-.312.117-2.043.384-5.447.384h-.042c-3.403 0-5.135-.267-5.446-.384-.107-.04.325-.773.325-.773a1.46 1.46 0 01.806-.66l.804-.265c.42-.14.756-.385 1.034-.717.514-.614.343-1.504-.16-2.759a26.723 26.723 0 00-.269-.615c-1.029-2.322-4.422-9.98-4.422-14.433 0-.15-.003-.28-.005-.394-.01-.627-.014-.784.414-1.162.305-.268.882-.712 1.787-1.119a13.059 13.059 0 012.832-.78c.094-.015.074-.155-.02-.15a12.8 12.8 0 00-3.179.537.058.058 0 01-.064-.09l.094-.132c.274-.384.442-.917.438-1.28a1.354 1.354 0 00-.314-.838.334.334 0 01-.073-.28c.21-.927 3.242-1.768 5.44-1.768 2.196 0 5.229.841 5.438 1.768.022.1-.01.202-.073.28a1.36 1.36 0 00-.314.838c-.004.362.165.895.438 1.28l.094.133c.032.045-.01.104-.064.09a12.807 12.807 0 00-3.179-.537c-.095-.006-.114.134-.02.15 1.086.17 2.047.462 2.833.78.904.406 1.482.849 1.785 1.117.43.379.426.536.415 1.163zm-8.783.63c0 .786.64 1.422 1.43 1.422.789 0 1.428-.636 1.428-1.422 0-.786-.64-1.423-1.429-1.423-.79 0-1.429.637-1.429 1.423zM34.57 0c2.101 0 4.148 2.16 4.148 5.56 0 6.285-2.864 12.444-4.994 16.516-.051.09-.14.023-.12-.019.168-.46.41-1.026.695-1.693 1.313-3.076 3.53-8.27 3.53-14.803 0-1.988-1.172-4.587-3.279-4.587-1.089 0-1.645.628-1.645 1.417 0 .625.612 1.018 1.136 1.354.175.112.34.218.469.324l.001.002c.443.357.762.788.88 1.306a1.826 1.826 0 01-.334 1.509l-.496.637s-.278-.262-.278-.69c0-.125.053-.256.145-.37a1.08 1.08 0 00.224-.92c-.1-.442-.454-.816-.955-1.127l-.058-.031c-.3-.157-1.496-.785-1.496-2.112C32.143.69 33.533 0 34.57 0z" fill="url(#paint0_linear_1_20596)"/><path id="Vector" d="M7.884 13.691c-.098.506-.298 2.018-.39 3.417-.053-.39-.415-2.018-.231-3.277.066-.46.72-.646.621-.14zm-5.599 1.61c-.253-2.624.017-4.715.096-6.022l.196-.223 4.463.835s-.015-.066-.033-.135a.6.6 0 01-.165-.395c0-.067.015-.133.041-.197-.028.21.084.381.216.51.029.064.063.156.094.245l.308.058s-.125.035-.275.107c-.171.088-.31.187-.411.294l-.654-.121c-.068.074-.198.139-.213.222.032.04.02.1.003.13.023.048.122.082.152.117.028.032.016.058.016.058s.154.105.19.146c.017.018-.024.05-.06.063-.01.04-.026.058-.083.099 0 0-.002.002-.003 0v-.008c-.001-.006 0-.014-.01-.025-.022-.026-.062-.05-.126-.06-.047-.006-.085 0-.101.02-.02.024-.008.063.035.098.106.084.185.05.176.068-.025.05 0 .071-.077.146-.057-.033-.096-.097-.14-.075-.016.008-.026.035-.022.072.005.04.026.093.066.12.079.056.308.217.338.223.106.021.187.034.257.01.064-.02.116-.045.164-.045.051 0 .082-.018.114-.006.04.015.044.043.072.07.018.017.021.041.018.07h.007a.413.413 0 01.4.526c-.07.02-.18.065-.222.08a.272.272 0 00-.27-.317.272.272 0 00-.26.33.419.419 0 01.098-.526c-.051-.005-.127-.023-.185-.02-.188.008-.298-.044-.454-.016-.066.012-.17.08-.202.086-.018.003-.014-.014-.013-.027 0-.01-.004-.019-.015-.015a.047.047 0 00-.024.018c-.01.014-.023.035-.05.056-.015.01-.021.01-.022.005-.005-.024-.012-.046-.031-.042-.044.01-.069.131-.174.183.003.077.01.15.014.202.245-.018.472.035.578.26l.584.093a.268.268 0 00-.049.11c-.033.015-.26.117-.43.246l-.003-.01c-.482-.58-1.086-.302-1.086-.302s-.46-.544-1.541-.355c.093 1.537-.86 3.09-1.842 4.65-.913 1.448-1.394 2.891-.71 4.92-1.471-2.564.524-5.428 1.26-6.604zm.86-2.679l-.295-.045c.01.536.032 1.058.067 1.569.217-.527.286-1.096.229-1.524zm.626-1.015c-.091.024-.195.017-.28.06-.072.037-.116.055-.2.124-.094.075-.106.125-.076.16.18-.046.35-.058.521-.022.014-.065.006-.112.014-.148.008-.033.029-.086.037-.124.008-.034.006-.055-.016-.05zm1.183.169c.03.004.04-.018.04-.031a.327.327 0 00-.037-.178c-.021-.035-.723-.616-1.15-.133-.007.009-.022.03-.012.048.014.024.046.008.056.004.554-.205.637.217 1.103.29zm.354.545c-.025-.198-.047-.362-.208-.375-.018-.002-.078-.048-.096-.053-.075-.019-.139-.013-.29-.074a1.35 1.35 0 01-.336-.235c-.02-.014-.037-.01-.053.012-.026.037-.048.11-.065.137a1.69 1.69 0 01-.187.235 1.379 1.379 0 01.6.06c.325.105.479.248.588.302l.047-.01zm.149-1.72c.012.034.106.035.106.075 0 .03-.046.028-.164.1-.117.072-.287.294-.125.467.29.307.056.594.166.598.034.002.196-.156.224-.285.06.009.063.083.082.144.207-.24-.198-.477-.135-.671.096-.299.36-.313.202-.411a.468.468 0 00-.177-.07c-.093-.011-.192.02-.18.053zm-2.258-.885c.05.11.193.228.231.227.012 0 .018-.012.019-.024.002-.017-.007-.04-.004-.055.002-.01.014-.03.031-.007.096.127.25.069.349.212.562.059 1.034.27 1.07.532.038.29-.311.256-.463.201-.222-.08-.477-.235-.704-.275-.126-.023-.279.009-.291.13-.016.158.143.235.17.235a.722.722 0 01.448-.04c.3.079.61.245.788.167a.055.055 0 00.035-.047.05.05 0 00-.014-.038c-.024-.024-.06-.013-.056-.026.01-.046.228-.122.247-.151.008-.014.007-.034-.048-.057-.004-.002-.013-.005-.014-.01 0-.005.005-.012.016-.022.079-.069.164-.101.223-.144a.032.032 0 00.01-.032c-.003-.013-.015-.022-.031-.037-.018-.016-.007-.027 0-.027.05.006.127-.03.215-.038.02-.077-.136-.223-.197-.302L3.2 9.717zm-.356 2.32l.087.013.098-.037c-.028-.099-.113-.156-.076-.204.038-.05.083-.106.034-.14.015-.033.122-.04.195-.108.075-.071.066-.185.092-.296.026-.11.083-.135.143-.242 0-.113-.118-.133-.14-.317-.024-.18.18-.318.388-.29.484.064.749.382 1.045.31.106-.025.106-.127.037-.227-.062-.09-.371-.335-.935-.347-.22.2-.372.09-.437.05-.018-.012-.032-.03-.015-.033.03-.006.081.003.086-.048.001-.018-.092-.098-.166-.17-.065-.062-.14-.138-.156-.248l-.22-.04a43.608 43.608 0 00-.06 2.373zm2.122 1.012c-.716 2.112-2.71 3.808-3.268 5.982 1.181-2.024 3.153-3.401 3.268-5.982zm11.904 17.197c-1.028-.3-1.845-1.04-1.845-1.04s-.232-.669-.232-2.05c0-1.222.782-2.674.782-4.143 0-.434-.173-.907-.419-1.385a18.841 18.841 0 01-3.53 6.248c.305.277.688.655 1.1 1.136.365.425.752.93 1.128 1.517.352.547-.035 1.274-.68 1.274H6.021c-.645 0-1.032-.727-.68-1.274A13.327 13.327 0 017.62 27.83c-2.332-2.921-3.693-5.707-4.472-8.225-.672.726-1.304 1.476-1.708 2.34.393-2.962 4.624-5.485 4.66-8.722.591 2.582-.864 4.177-2.37 5.766.552 1.954 1.38 3.799 2.535 5.676.186.105.367.205.59.422.35.48.823 1.153 1.144 1.613-1.527-3.373-2.284-6.188-2.547-8.654.707 3.375 2.933 8.648 3.224 9.384a13.06 13.06 0 00-3.026 3.302.448.448 0 00-.018.459.435.435 0 00.389.235h7.152c.165 0 .31-.088.389-.235a.448.448 0 00-.019-.459 8.866 8.866 0 00-.07-.108c-.034.093-.122.163-.217.163-1.018-.006-3.097.017-4.651.032a8.04 8.04 0 01.493-1.946c.87-.013 2.19-.027 2.99-.014-.14-.15-.274-.286-.4-.409a51.652 51.652 0 00-2.091-.003l-.324.004c.068-.153.135-.292.2-.416.367-.006.99-.01 1.662.001-.13-.11-.33-.2-.661-.21a28.523 28.523 0 00-.889-.002 7.04 7.04 0 01.036-.063c.144-.247.508-.356.843-.408a36.544 36.544 0 001.974-5.228c-.43 1.02-.862 1.78-1.151 2.196-.42.605-1.5.886-1.797-.744-.721-3.962-.885-7.59-.59-9.921.105-.833 2.352-.735 3.268-.555-.845-.615-3.235-.5-4.44-.328.107-.358.649-.574 3.082-.432-.057-.1-.057-.275-.787-.316-.417-.024-.91-.057-1.488.006.56-.289.876-.939 1.731-1.127.504-.112 1.104-.056 1.356.166-.197.316-.252.888-.131 1.11.13.034.379.1.605.184.239.09.44.212.463.387l.043.029.015.007-.004-.004c.025-.005.274-.058.354-.1.075-.04.122-.08.124-.122 0-.02-.009-.041-.03-.063-.04-.04-.095.015-.109.036-.077-.074-.052-.131-.075-.176a.007.007 0 010-.006c.001-.003.004-.004.007-.004.034.005.07.021.128.005.034-.01.057-.038.058-.067.001-.027-.017-.054-.052-.064a.222.222 0 00-.148.007.038.038 0 00-.017.017c-.002.005-.004.012-.007.012-.004 0-.013-.015-.016-.018a.237.237 0 01-.064-.124c-.036-.013-.055-.038-.055-.052 0-.014.158-.082.158-.082s.003-.04.047-.064c.055-.028.069-.033.094-.047.026-.015-.031-.05.013-.113a.701.701 0 00-.141-.274l-.724-.132c.2-.133.338-.285.389-.437l3.537.668a31.42 31.42 0 01.13 3.81c.652 1.546.894 3.094.706 5.136-.533-1.781-.412-4.343-1.429-5.825-.314-.457-.721-.668-1.05-.616-.213-.228-.368-.328-.707-.361a.85.85 0 01.13.382c.017.124.025.334.03.583.005.252.004.5-.001.739-.005.43-.017.854-.025 1.104-.126 3.83-1.552 7.558-2.828 10.524.518-.702 1.13-1.494 1.287-1.717.102-.087.209-.183.388-.3.484-.752 1.299-2.164 1.917-4.334a36.43 36.43 0 01-.76-1.421 37.25 37.25 0 011.177 1.612c.532.78 1.274 2.073 1.274 3.683 0 1.937-.394 3.364.546 5.662zm-2.285-16.603c-.104-.123-.179-.336-.255-.362-.06-.02-.1.066-.233.086-.133.02-.332-.008-.399-.007a.325.325 0 00-.093.105c.034.001.092.004.143.01.216.026.558.115.76.377a.192.192 0 01.05-.035c.061-.044.1-.087.027-.174zm-.099-.595a1.085 1.085 0 00-.64-.043c-.115.029-.182.17-.139.214.025.025.256.04.345.014.174-.053.28-.112.569-.03.006 0 .055.019.065-.003.007-.016-.047-.084-.2-.152zm.81.78a.868.868 0 00-.11-.145c-.034-.036-.094-.106-.131-.134-.047-.036-.154-.09-.189-.116-.027-.019-.04.006-.038.026.005.031.027.092.023.137-.008.093.02.163.014.178l.063.007c.13.015.26.047.388.112a.129.129 0 00-.02-.065zm.131-1.879c-.106.196-.25.188-.287.217-.057.046-.039.058.038.106-.205.065-.352-.144-.352-.144s-.188-.122-.51-.076c-.198.028-.251.09-.251.207 0 .07.053.165.132.176.203.028.325-.035.544-.042.152-.005.3.028.387.095.092.07.123.138.116.237-.012.175-.122.244-.103.308.112.222.117.477.143.507.055.068.134.146.192.204a.261.261 0 01.034.06c.005-.58-.004-1.212-.028-1.845l-.054-.01zm-1.936-.12c.101.04.184.084.183.142 0 .009-.025.006-.041.013-.008.003-.014.01-.013.02.002.015.031.051.079.092a.7.7 0 01.148.156c.002.005-.001.008-.004.008a.088.088 0 00-.044.009c-.027.015-.005.038.006.047.065.054.075.06.122.103.043.039.08.085.072.09-.017.011-.036-.011-.058.009-.012.01-.012.033 0 .05.132.179.563.085.747.121.131.026.238.155.333.159.046.001.098-.083.083-.171-.017-.096-.114-.197-.357-.191-.195.004-.422.086-.586.033a.26.26 0 01-.19-.254c-.006-.185.152-.262.285-.288.276-.055.52.048.562.061.12-.05.288-.02.321-.057.006.023-.018.043-.028.059-.009.013-.01.025.012.025.107.002.2-.047.265-.123l-1.76-.32c-.086.081-.177.188-.137.208zm-.321.164c.239.132.076.448.173.668a.396.396 0 00.245.214c.028.008.025-.014.02-.025-.126-.313.039-.503-.214-.828.02-.023.053-.028.135-.03-.029-.05-.154-.119-.349-.07-.095.025-.033.058-.01.071zm.564 1.733l.001.002-.001-.002zm2.35 6.258c-1.26-1.986-.409-4.204-1.789-5.761.257.694.298 1.765.339 2.323.041.557.065 1.75.659 2.885.628 1.202 1.359 1.529 2.063 1.888.318.163.57.318.811.501-.675-.742-1.358-.695-2.082-1.836zm.667 2.079c.45 2.986-.37 4.947 1.12 7.416.569.281 1.466.617 2.344.858-3.503-3.42-2.477-6.138-3.464-8.274zm-.002-.004l.002.004-.002-.004zM1.992 26.836zm.717-4.444c-.308 2.325 1.416 3.392.508 5.926.623.479 1.15 1.191 1.573 1.752.328-1.443.216-2.676-.022-3.496-.398-1.372-1.554-2.743-2.06-4.182zm17.079 2.52c.022.071-.217.795-.545 1.095-.164-.567-1.111-1.924-1.111-1.924.664 1.272.824 2.317.978 3.212.24-.31.83-1.043 1.005-2.108-.2-1.426-1.497-2.836-2.74-3.169.587.278 1.87 1.158 2.413 2.895zM5.823 5.34c0-.212.17-.384.378-.384a.386.386 0 01.244.678c.211.25.68.788 1.03 1.062.267-.688.704-1.6.846-1.893.19-.015.316-.175.315-.25-.235.11-.306-.157-.423-.175-.1-.014-.178.184-.034.364a.42.42 0 01.229-.765c.227 0 .411.187.411.418a.417.417 0 01-.3.402 49.9 49.9 0 001.32 1.6l1.29-1.491c.022.003.032.005.053.004.146-.009.262-.167.255-.24-.134.056-.24-.03-.327-.123-.04-.043-.115-.057-.16.002-.039.05-.05.157.043.268a.416.416 0 01.283-.712c.226 0 .409.185.409.414a.413.413 0 01-.34.409c.197.472.534 1.337.714 1.926.168-.168.644-.86.761-1.029a.2.2 0 00.072.025.26.26 0 00.283-.16c-.125.017-.2-.095-.267-.189-.04-.058-.09-.073-.137-.052-.062.028-.122.137-.027.318a.386.386 0 01.262-.66.38.38 0 01.378.383.382.382 0 01-.363.384c-.008.071-.021.18-.039.313-.071.56-.218 1.544-.562 2.529.051-.353.061-.555.06-.705-.218.344-.567.724-.567.724.278.18.439.394.439.623 0 .14-.055.268-.164.393l-.072.273c.397.255.46.539.452.73-.04-.644-1.372-1.12-2.974-1.12-.484 0-.939.043-1.341.12.149-.242.556-.299.953-.326.552-.037 1.722 0 2.59.411-.19-.405-1.065-.682-2.48-.655.07-.142.114-.187.25-.3.323-.262 1.032-.242 1.632-.062.014-.226-.76-.412-1.601-.413-.85-.001-2.043.166-2.488.46.084-.08.259-.2.53-.314.322-.79.665-1.452.971-2.025a13.383 13.383 0 01-.137-1.382c-.254.491-.614 1.334-.901 2.033-.369-.3-.75-.703-1.017-.974.01.096-.009.805.173 2.349A15.61 15.61 0 016.16 5.72c.163.001.27-.118.276-.21-.172.005-.303-.288-.464-.17-.095.07-.024.278.09.355a.384.384 0 01-.239-.357zm4.202 2.885c.588.038 1.108.15 1.507.314-.028-.088-.25-.798-.537-1.37-.037.052-.54.632-.97 1.056zm-1.41-1.127c-.194.364-.42.789-.636 1.34a5.316 5.316 0 011.574-.225c-.375-.423-.755-.88-.937-1.115zM.94 28.073c.22.224.782.546 1.274.82-.115-.299-.322-1.285-.221-2.056.243 1.482.68 2.537.906 2.916-1.654-.696-2.394-1.381-2.394-1.381a11.302 11.302 0 01-.167-1.92c0-1.674.856-3.803 1.785-5.009C.765 23.5.661 26.524.94 28.073z" fill="url(#paint1_linear_1_20596)"/><path id="Union_2" fill-rule="evenodd" clip-rule="evenodd" d="M49.406 8.762c-.006-.487-.776-.895-1.716-.97l-.017-.41c.358-.105.612-.367.612-.673a.612.612 0 00-.192-.433c-.224-.238-.362-.48-.243-.848a.223.223 0 00.011-.07c0-.11-.084-.209-.213-.271a.36.36 0 00-.327-.188.36.36 0 00-.328.188c-.129.062-.212.16-.212.271 0 .024.003.048.01.07.12.368-.018.61-.242.848a.613.613 0 00-.192.433c0 .306.252.567.608.673l-.014.41c-.944.079-1.71.483-1.715.97.517-.175 1.334-.284 2.085-.284.72 0 1.568.11 2.085.284zM43.73 24.95a.294.294 0 00-.034.139l-.046.417c1.124-.36 2.366-.54 3.652-.54s2.517.177 3.641.54l-.03-.417a.295.295 0 00-.034-.14c-.14-.262-.772-1.096-3.575-1.138-2.804.042-3.435.877-3.574 1.14zm1.239-2.073a4.06 4.06 0 01-1.207-1.4c-.191-.364-.398-.992-.412-1.273-.035-.701.317-.887.66-.973.285-.07.781-.084.785.328.011 1.043.194 2.17.71 3.112-.2.06-.393.135-.536.206zm2.095-3.74c-.019-.387-.419-.542-.897-.47-.604.092-.848.334-.877.887.006 1.182.286 2.261.717 2.994.324-.061.68-.1 1.057-.112 0 0 .004-3.216 0-3.299zm-2.525 4.035a.72.72 0 00-.172.253c-1.385-.482-2.312-1.288-2.312-2.18 0-.428.21-.836.557-.97.194-.074.264.12.283.228a4.57 4.57 0 001.644 2.669zm6.318-1.695c.191-.364.398-.992.412-1.273.035-.701-.317-.887-.661-.972-.285-.07-.78-.085-.785.327-.01 1.043-.193 2.17-.71 3.112.2.06.394.135.537.206.56-.41.94-.896 1.206-1.4zm-3.302-2.34c.019-.387.419-.542.898-.47.603.092.847.334.877.887-.007 1.182-.286 2.261-.718 2.994-.324-.061-.68-.1-1.057-.112 0 0-.004-3.216 0-3.299zm4.452 1.138c-.194-.074-.264.12-.283.228a4.57 4.57 0 01-1.644 2.669c.08.08.14.165.172.253 1.385-.482 2.313-1.288 2.313-2.18 0-.428-.211-.836-.558-.97zm-.052-1.127c-.678-.486-2.23-1.254-4.663-1.254-1.349 0-2.859.338-3.877.788 1.4-1.593 1.3-5.06.763-6.87.883-.37 2.1-.598 3.161-.598s2.437.266 3.244.82c-.35 1.794-.365 3.099.084 5.196-.233-2.617.246-4.125.703-5.426-.835-.924-2.792-1.285-4.032-1.285-1.125 0-2.36.229-3.36.624-.161-.508-.33-.98-.413-1.186 1.002-.517 2.405-.85 3.785-.84 2.556.016 4.724.997 5.164 2.176-1.078 1.379-1.893 5.796-.559 7.855zm-9.024 7.438c-.003.302-.044 1.81-.569 2.502-.005.007.002.016.01.01.904-.595 3.26-.826 4.927-.826 2.089 0 4.143.304 4.95.838.007.005.015-.004.01-.011-.542-.737-.578-2.219-.58-2.512a.087.087 0 00-.045-.076c-.736-.415-2.262-.854-4.335-.854-2.096 0-3.584.436-4.321.849a.092.092 0 00-.047.08zm9.721 3.469c.173.113.29.292.33.494l.169.851c0 .005-.004.009-.008.006-.455-.354-1.83-1.017-5.836-1.072-4.024.056-5.395.725-5.842 1.077-.004.003-.009 0-.008-.005l.17-.853a.766.766 0 01.328-.493c.747-.49 2.272-1.052 5.352-1.095 3.07.043 4.596.601 5.345 1.09zm-.01-17.96c-.579 1.045-1.066 3.419-.833 5.119.914-.258 1.691-1.15 1.97-2.11.321-1.112-.039-2.422-1.136-3.01zm-.466 4.178c.132-1.252.542-2.056.942-2.57.353 1.071-.334 2.152-.942 2.57zM40.6 26.778c-.787-1.622-.939-3.552-.283-4.686.004-.007.013-.003.012.003-.146.87.382 2.635 1.825 3.901l-.002.01c-.196.004-.826.039-.956.046l-.024.001c0 .001-.267.342-.563.726h-.01zm-.43-5.838c.008-.01-.007-.023-.016-.014-3.434 3.368-1.524 7.662-.738 9.213l.72-.946s.53-.03 1.224-.042c-1.54-1.551-3.277-5.424-1.19-8.212zm14.657 2.269c-.002-.014.017-.018.021-.005 1.02 2.87.564 4.206-.128 5.761a37.575 37.575 0 01-.513-.832s-.975-.06-.984-.056c.616-.655 1.924-2.418 1.604-4.868zm-12.271-7.556c-1.547-.303-2.285-2.407-1.84-3.967l-.166-.356-.255-.55c-.709 1.055-.731 3.21.477 4.65l.001.002c.226.664.56 2.513.354 3.617a.005.005 0 00.01.003c.346-.67.672-1.578.755-2.793.26.103.459.155.68.183-.163 2.054-.95 2.997-1.646 3.775-.007.009.005.02.013.012 1.613-1.283 2.26-1.943 2.664-3.496.709-2.726-.238-5.384-.66-6.456a2.092 2.092 0 00-2.287.123c.15.277.524 1.141.797 1.775l.234.538c.513 1.163.777 2.024.869 2.94zm10.213 4.308c-.005-.01.007-.018.014-.01 1.135 1.48 2.096 3.467.772 6.387-.343-.467-.56-.787-.56-.787s-.843-.016-1.04-.015c1.238-1.208 2.036-3.355.814-5.575z" fill="url(#paint2_linear_1_20596)"/></g><defs><linearGradient id="paint0_linear_1_20596" x1="38.718" y1="16.355" x2="18.109" y2="16.354" gradientUnits="userSpaceOnUse"><stop offset=".214" stop-color="#D8AF69"/><stop offset=".49" stop-color="#F3D88E"/><stop offset=".828" stop-color="#D8AF69"/></linearGradient><linearGradient id="paint1_linear_1_20596" x1="20.214" y1="18.198" x2=".338" y2="18.196" gradientUnits="userSpaceOnUse"><stop offset=".214" stop-color="#D8AF69"/><stop offset=".49" stop-color="#F3D88E"/><stop offset=".828" stop-color="#D8AF69"/></linearGradient><linearGradient id="paint2_linear_1_20596" x1="55.444" y1="18.45" x2="38.174" y2="18.449" gradientUnits="userSpaceOnUse"><stop offset=".214" stop-color="#D8AF69"/><stop offset=".49" stop-color="#F3D88E"/><stop offset=".828" stop-color="#D8AF69"/></linearGradient></defs></svg>