<svg width="65" height="18" fill="none" xmlns="http://www.w3.org/2000/svg"><g id="WINNERS"><path d="M6.714 17.745H2.27L.444.255H3.7l.814 12.43h.22L5.526.255h4.51l.814 12.43h.22l.792-12.43h3.058l-1.826 17.49H8.65L7.792 4.37h-.22l-.858 13.376z" fill="url(#paint0_linear_1_20625)"/><path d="M19.01 17.745h-3.08V.255h3.08v17.49z" fill="url(#paint1_linear_1_20625)"/><path d="M25.945 10.595L25.79.255h2.794v17.49h-3.322l-1.848-10.34h-.22l.154 10.34h-2.794V.255h3.322l1.848 10.34h.22z" fill="url(#paint2_linear_1_20625)"/><path d="M35.51 10.595L35.358.255h2.794v17.49H34.83l-1.85-10.34h-.22l.154 10.34H30.12V.255h3.322l1.848 10.34h.22z" fill="url(#paint3_linear_1_20625)"/><path d="M42.766 9.98v5.411h3.498v2.354h-6.578V.255h6.468V2.61h-3.388v5.038h2.486V9.98h-2.486z" fill="url(#paint4_linear_1_20625)"/><path d="M55.062 11.783l.528 5.962h-3.212l-.396-6.116c-.044-.748-.506-1.034-1.144-1.034h-.418v7.15h-3.08V.255h3.916c2.53 0 4.026 1.562 4.026 4.202v1.078c0 2.024-1.012 3.322-2.662 3.608v.22c1.342.22 2.31.704 2.442 2.42zM50.42 2.61v5.632h.836c.616 0 .946-.44.946-1.342V3.973c0-.902-.33-1.364-.946-1.364h-.836z" fill="url(#paint5_linear_1_20625)"/><path d="M60.146 17.965c-2.398 0-3.938-1.782-3.938-4.554v-1.738l2.948-.176v2.728c0 .836.352 1.298.99 1.298.616 0 .946-.462.946-1.298V13.06c0-3.476-4.532-3.102-4.532-7.7v-.88c0-2.706 1.474-4.444 3.718-4.444 2.288 0 3.762 1.738 3.762 4.444v1.65l-2.86.176V3.731c0-.836-.308-1.254-.858-1.254-.528 0-.792.418-.792 1.254v1.122c0 3.102 4.642 3.41 4.642 7.524v1.034c0 2.772-1.584 4.554-4.026 4.554z" fill="url(#paint6_linear_1_20625)"/></g><defs><linearGradient id="paint0_linear_1_20625" x1="64.172" y1="9.199" x2=".444" y2="9.169" gradientUnits="userSpaceOnUse"><stop offset=".214" stop-color="#D8AF69"/><stop offset=".49" stop-color="#F3D88E"/><stop offset=".828" stop-color="#D8AF69"/></linearGradient><linearGradient id="paint1_linear_1_20625" x1="64.172" y1="9.199" x2=".444" y2="9.169" gradientUnits="userSpaceOnUse"><stop offset=".214" stop-color="#D8AF69"/><stop offset=".49" stop-color="#F3D88E"/><stop offset=".828" stop-color="#D8AF69"/></linearGradient><linearGradient id="paint2_linear_1_20625" x1="64.172" y1="9.199" x2=".444" y2="9.169" gradientUnits="userSpaceOnUse"><stop offset=".214" stop-color="#D8AF69"/><stop offset=".49" stop-color="#F3D88E"/><stop offset=".828" stop-color="#D8AF69"/></linearGradient><linearGradient id="paint3_linear_1_20625" x1="64.172" y1="9.199" x2=".444" y2="9.169" gradientUnits="userSpaceOnUse"><stop offset=".214" stop-color="#D8AF69"/><stop offset=".49" stop-color="#F3D88E"/><stop offset=".828" stop-color="#D8AF69"/></linearGradient><linearGradient id="paint4_linear_1_20625" x1="64.172" y1="9.199" x2=".444" y2="9.169" gradientUnits="userSpaceOnUse"><stop offset=".214" stop-color="#D8AF69"/><stop offset=".49" stop-color="#F3D88E"/><stop offset=".828" stop-color="#D8AF69"/></linearGradient><linearGradient id="paint5_linear_1_20625" x1="64.172" y1="9.199" x2=".444" y2="9.169" gradientUnits="userSpaceOnUse"><stop offset=".214" stop-color="#D8AF69"/><stop offset=".49" stop-color="#F3D88E"/><stop offset=".828" stop-color="#D8AF69"/></linearGradient><linearGradient id="paint6_linear_1_20625" x1="64.172" y1="9.199" x2=".444" y2="9.169" gradientUnits="userSpaceOnUse"><stop offset=".214" stop-color="#D8AF69"/><stop offset=".49" stop-color="#F3D88E"/><stop offset=".828" stop-color="#D8AF69"/></linearGradient></defs></svg>